<?xml version="1.0" encoding="UTF-8" standalone="no"?>
<!DOCTYPE svg PUBLIC "-//W3C//DTD SVG 1.1//EN"
 "http://www.w3.org/Graphics/SVG/1.1/DTD/svg11.dtd">
<!-- Generated by graphviz version 2.43.0 (0)
 -->
<!-- Title: %3 Pages: 1 -->
<svg width="1261pt" height="238pt"
 viewBox="0.00 0.00 1261.00 237.74" xmlns="http://www.w3.org/2000/svg" xmlns:xlink="http://www.w3.org/1999/xlink">
<g id="graph0" class="graph" transform="scale(1 1) rotate(0) translate(36 201.74)">
<title>%3</title>
<polygon fill="dimgray" stroke="transparent" points="-36,36 -36,-201.74 1225,-201.74 1225,36 -36,36"/>
<text text-anchor="middle" x="594.5" y="-150.54" font-family="Helvetica,sans-Serif" font-size="14.00">Sweep&#39;s Plan &amp; Progress</text>
<!-- start -->
<g id="node1" class="node">
<title>start</title>
</g>
<!-- dcc0ee42&#45;0e06&#45;45bc&#45;a5a6&#45;4292a315ddc5 -->
<g id="node3" class="node">
<title>dcc0ee42&#45;0e06&#45;45bc&#45;a5a6&#45;4292a315ddc5</title>
<ellipse fill="#0ee832" stroke="black" cx="283.5" cy="-99.87" rx="231.45" ry="26.74"/>
<text text-anchor="middle" x="283.5" y="-103.67" font-family="Helvetica,sans-Serif" font-size="14.00">✓ Modify</text>
<text text-anchor="middle" x="283.5" y="-88.67" font-family="Helvetica,sans-Serif" font-size="14.00">src/main/java/org/mcq/dao/QuestionDao.java</text>
</g>
<!-- start&#45;&gt;dcc0ee42&#45;0e06&#45;45bc&#45;a5a6&#45;4292a315ddc5 -->
<g id="edge4" class="edge">
<title>start&#45;&gt;dcc0ee42&#45;0e06&#45;45bc&#45;a5a6&#45;4292a315ddc5</title>
<path fill="none" stroke="black" d="M1.31,-99.87C4.91,-99.87 20.23,-99.87 42.01,-99.87"/>
<polygon fill="black" stroke="black" points="42.09,-103.37 52.09,-99.87 42.09,-96.37 42.09,-103.37"/>
<text text-anchor="middle" x="26.64" y="-106.67" font-family="Helvetica,sans-Serif" font-size="14.00">Start</text>
</g>
<!-- end -->
<g id="node2" class="node">
<title>end</title>
</g>
<!-- e3ff68fc&#45;3290&#45;4a5c&#45;af23&#45;dac10ec1f835 -->
<g id="node4" class="node">
<title>e3ff68fc&#45;3290&#45;4a5c&#45;af23&#45;dac10ec1f835</title>
<ellipse fill="white" stroke="black" cx="843.5" cy="-99.87" rx="287.17" ry="26.74"/>
<text text-anchor="middle" x="843.5" y="-103.67" font-family="Helvetica,sans-Serif" font-size="14.00">▶ Create</text>
<text text-anchor="middle" x="843.5" y="-88.67" font-family="Helvetica,sans-Serif" font-size="14.00">src/main/java/org/mcq/controller/QuestionController.java</text>
</g>
<!-- dcc0ee42&#45;0e06&#45;45bc&#45;a5a6&#45;4292a315ddc5&#45;&gt;e3ff68fc&#45;3290&#45;4a5c&#45;af23&#45;dac10ec1f835 -->
<g id="edge2" class="edge">
<title>dcc0ee42&#45;0e06&#45;45bc&#45;a5a6&#45;4292a315ddc5&#45;&gt;e3ff68fc&#45;3290&#45;4a5c&#45;af23&#45;dac10ec1f835</title>
<path fill="none" stroke="black" d="M514.83,-99.87C525.29,-99.87 535.75,-99.87 546.21,-99.87"/>
<polygon fill="black" stroke="black" points="546.23,-103.37 556.23,-99.87 546.23,-96.37 546.23,-103.37"/>
</g>
<!-- 6bdb7c3a&#45;94ba&#45;42c0&#45;8b50&#45;f6e208901886 -->
<g id="node5" class="node">
<title>6bdb7c3a&#45;94ba&#45;42c0&#45;8b50&#45;f6e208901886</title>
<polygon fill="#0ee832" stroke="black" points="532.5,-36 12.5,-36 12.5,0 532.5,0 532.5,-36"/>
<text text-anchor="middle" x="272.5" y="-14.3" font-family="Helvetica,sans-Serif" font-size="14.00">✓ Run GitHub Actions for `src/main/java/org/mcq/dao/QuestionDao.java`</text>
</g>
<!-- dcc0ee42&#45;0e06&#45;45bc&#45;a5a6&#45;4292a315ddc5&#45;&gt;6bdb7c3a&#45;94ba&#45;42c0&#45;8b50&#45;f6e208901886 -->
<g id="edge1" class="edge">
<title>dcc0ee42&#45;0e06&#45;45bc&#45;a5a6&#45;4292a315ddc5&#45;&gt;6bdb7c3a&#45;94ba&#45;42c0&#45;8b50&#45;f6e208901886</title>
<path fill="none" stroke="black" stroke-dasharray="5,2" d="M279.9,-72.72C278.72,-64.18 277.41,-54.68 276.23,-46.08"/>
<polygon fill="black" stroke="black" points="279.69,-45.58 274.86,-36.15 272.76,-46.53 279.69,-45.58"/>
</g>
<!-- e3ff68fc&#45;3290&#45;4a5c&#45;af23&#45;dac10ec1f835&#45;&gt;end -->
<g id="edge5" class="edge">
<title>e3ff68fc&#45;3290&#45;4a5c&#45;af23&#45;dac10ec1f835&#45;&gt;end</title>
<path fill="none" stroke="black" d="M1130.75,-99.87C1151.25,-99.87 1167.79,-99.87 1177.83,-99.87"/>
<polygon fill="black" stroke="black" points="1177.9,-103.37 1187.9,-99.87 1177.9,-96.37 1177.9,-103.37"/>
<text text-anchor="middle" x="1159.29" y="-106.67" font-family="Helvetica,sans-Serif" font-size="14.00">Finish</text>
</g>
<!-- 220d9187&#45;fa63&#45;46b0&#45;8640&#45;94d92381306e -->
<g id="node6" class="node">
<title>220d9187&#45;fa63&#45;46b0&#45;8640&#45;94d92381306e</title>
<polygon fill="white" stroke="black" points="1148,-36 551,-36 551,0 1148,0 1148,-36"/>
<text text-anchor="middle" x="849.5" y="-14.3" font-family="Helvetica,sans-Serif" font-size="14.00">▶ Run GitHub Actions for `src/main/java/org/mcq/controller/QuestionController.java`</text>
</g>
<!-- e3ff68fc&#45;3290&#45;4a5c&#45;af23&#45;dac10ec1f835&#45;&gt;220d9187&#45;fa63&#45;46b0&#45;8640&#45;94d92381306e -->
<g id="edge3" class="edge">
<title>e3ff68fc&#45;3290&#45;4a5c&#45;af23&#45;dac10ec1f835&#45;&gt;220d9187&#45;fa63&#45;46b0&#45;8640&#45;94d92381306e</title>
<path fill="none" stroke="black" stroke-dasharray="5,2" d="M845.46,-72.72C846.1,-64.27 846.8,-54.89 847.44,-46.36"/>
<polygon fill="black" stroke="black" points="850.95,-46.38 848.21,-36.15 843.97,-45.86 850.95,-46.38"/>
</g>
</g>
</svg>
