<?xml version="1.0" encoding="UTF-8" standalone="no"?>
<!DOCTYPE svg PUBLIC "-//W3C//DTD SVG 1.1//EN"
 "http://www.w3.org/Graphics/SVG/1.1/DTD/svg11.dtd">
<!-- Generated by graphviz version 2.43.0 (0)
 -->
<!-- Title: %3 Pages: 1 -->
<svg width="713pt" height="238pt"
 viewBox="0.00 0.00 713.00 237.74" xmlns="http://www.w3.org/2000/svg" xmlns:xlink="http://www.w3.org/1999/xlink">
<g id="graph0" class="graph" transform="scale(1 1) rotate(0) translate(36 201.74)">
<title>%3</title>
<polygon fill="dimgray" stroke="transparent" points="-36,36 -36,-201.74 677,-201.74 677,36 -36,36"/>
<text text-anchor="middle" x="320.5" y="-150.54" font-family="Helvetica,sans-Serif" font-size="14.00">Sweep&#39;s Plan &amp; Progress</text>
<!-- start -->
<g id="node1" class="node">
<title>start</title>
</g>
<!-- 72b53f95&#45;f7ee&#45;416e&#45;94a2&#45;b23eea81ef24 -->
<g id="node3" class="node">
<title>72b53f95&#45;f7ee&#45;416e&#45;94a2&#45;b23eea81ef24</title>
<ellipse fill="#0ee832" stroke="black" cx="317.5" cy="-99.87" rx="265.33" ry="26.74"/>
<text text-anchor="middle" x="317.5" y="-103.67" font-family="Helvetica,sans-Serif" font-size="14.00">✓ Modify</text>
<text text-anchor="middle" x="317.5" y="-88.67" font-family="Helvetica,sans-Serif" font-size="14.00">src/main/java/org/mcq/controller/QuizController.java</text>
</g>
<!-- start&#45;&gt;72b53f95&#45;f7ee&#45;416e&#45;94a2&#45;b23eea81ef24 -->
<g id="edge2" class="edge">
<title>start&#45;&gt;72b53f95&#45;f7ee&#45;416e&#45;94a2&#45;b23eea81ef24</title>
<path fill="none" stroke="black" d="M1.01,-99.87C3.97,-99.87 19.45,-99.87 42.1,-99.87"/>
<polygon fill="black" stroke="black" points="42.24,-103.37 52.24,-99.87 42.24,-96.37 42.24,-103.37"/>
<text text-anchor="middle" x="26.67" y="-106.67" font-family="Helvetica,sans-Serif" font-size="14.00">Start</text>
</g>
<!-- end -->
<g id="node2" class="node">
<title>end</title>
</g>
<!-- 72b53f95&#45;f7ee&#45;416e&#45;94a2&#45;b23eea81ef24&#45;&gt;end -->
<g id="edge3" class="edge">
<title>72b53f95&#45;f7ee&#45;416e&#45;94a2&#45;b23eea81ef24&#45;&gt;end</title>
<path fill="none" stroke="black" d="M582.75,-99.87C603.14,-99.87 619.7,-99.87 629.78,-99.87"/>
<polygon fill="black" stroke="black" points="629.89,-103.37 639.89,-99.87 629.89,-96.37 629.89,-103.37"/>
<text text-anchor="middle" x="611.33" y="-106.67" font-family="Helvetica,sans-Serif" font-size="14.00">Finish</text>
</g>
<!-- f06f3b2f&#45;e82d&#45;4e8a&#45;8767&#45;77b54f6be236 -->
<g id="node4" class="node">
<title>f06f3b2f&#45;e82d&#45;4e8a&#45;8767&#45;77b54f6be236</title>
<polygon fill="yellow" stroke="black" points="602.5,-36 32.5,-36 32.5,0 602.5,0 602.5,-36"/>
<text text-anchor="middle" x="317.5" y="-14.3" font-family="Helvetica,sans-Serif" font-size="14.00">⋯ Run GitHub Actions for `src/main/java/org/mcq/controller/QuizController.java`</text>
</g>
<!-- 72b53f95&#45;f7ee&#45;416e&#45;94a2&#45;b23eea81ef24&#45;&gt;f06f3b2f&#45;e82d&#45;4e8a&#45;8767&#45;77b54f6be236 -->
<g id="edge1" class="edge">
<title>72b53f95&#45;f7ee&#45;416e&#45;94a2&#45;b23eea81ef24&#45;&gt;f06f3b2f&#45;e82d&#45;4e8a&#45;8767&#45;77b54f6be236</title>
<path fill="none" stroke="black" stroke-dasharray="5,2" d="M317.5,-72.72C317.5,-64.27 317.5,-54.89 317.5,-46.36"/>
<polygon fill="black" stroke="black" points="321,-46.15 317.5,-36.15 314,-46.15 321,-46.15"/>
</g>
</g>
</svg>
